<svg xmlns="http://www.w3.org/2000/svg" version="1.1" xmlns:xlink="http://www.w3.org/1999/xlink" xmlns:svgjs="http://svgjs.com/svgjs" width="512" height="512" x="0" y="0" viewBox="0 0 512 512" style="enable-background:new 0 0 512 512" xml:space="preserve" class=""><g><path xmlns="http://www.w3.org/2000/svg" d="m512 256c0 33.8125-6.5625 66.101562-18.472656 95.660156-26.417969 65.535156-79.171875 117.625-145.160156 143.160156-18.261719 7.074219-37.542969 12.113282-57.550782 14.828126-11.390625 1.558593-23.007812 2.351562-34.816406 2.351562-17.804688 0-35.191406-1.816406-51.972656-5.289062-23.480469-4.835938-45.777344-12.882813-66.425782-23.6875-16.488281-8.609376-31.921874-18.964844-46.058593-30.832032-.300781-.242187-.59375-.492187-.886719-.742187-15.277344-12.9375-29.019531-27.636719-40.910156-43.78125-31.273438-42.445313-49.746094-94.898438-49.746094-151.667969 0-78.566406 35.390625-148.855469 91.09375-195.8125 25.445312-21.453125 55.128906-38.035156 87.613281-48.316406 24.390625-7.710938 50.355469-11.871094 77.292969-11.871094 20.941406 0 41.285156 2.507812 60.761719 7.261719 18.484375 4.492187 36.195312 11.003906 52.871093 19.269531 15.171876 7.53125 29.496094 16.527344 42.777344 26.800781l.023438.011719c17.3125 13.382812 32.871094 28.941406 46.246094 46.246094l.007812.011718c7.890625 10.226563 15.039062 21.054688 21.339844 32.421876 4.960937 8.945312 9.402344 18.210937 13.28125 27.773437 12.054687 29.707031 18.691406 62.179687 18.691406 96.203125zm0 0" fill="#ff5787" data-original="#ff5787"></path><path xmlns="http://www.w3.org/2000/svg" d="m493.527344 351.660156c-33.730469 83.675782-110.40625 145.441406-202.710938 157.988282-28.933594.042968-57.867187-.941407-86.789062-2.9375-42.621094-8.773438-81.367188-28.15625-113.371094-55.261719-11.410156-130.414063-11.265625-260.839844.4375-391.261719 1.128906-12.644531 2.371094-25.277344 3.71875-37.921875 27.964844-4.417969 55.925781-7.878906 83.894531-10.394531 46.019531-4.128906 92.035157-5.664063 138.054688-4.609375 13.84375.304687 27.6875.855469 41.535156 1.640625 3.4375.1875 6.863281.398437 10.300781.617187l43.8125 43.8125.023438.011719 79.515625 79.515625c.1875 3.289063.363281 6.582031.53125 9.875.304687 5.683594.574219 11.378906.828125 17.0625 2.851562 63.957031 2.925781 127.90625.21875 191.863281zm0 0" fill="#caf1ff" data-original="#caf1ff" class=""></path><path xmlns="http://www.w3.org/2000/svg" d="m368.597656 9.519531 123.351563 123.339844c-38.097657-2.476563-76.195313-6.730469-114.292969-12.75-3.9375-36.863281-6.957031-73.726563-9.058594-110.589844zm0 0" fill="#82e2ff" data-original="#82e2ff" class=""></path><path xmlns="http://www.w3.org/2000/svg" d="m279.519531 233.890625h134.5c5.960938 0 10.796875-4.835937 10.796875-10.796875 0-5.964844-4.835937-10.796875-10.796875-10.796875h-134.5c-5.960937 0-10.796875 4.832031-10.796875 10.796875 0 5.960938 4.835938 10.796875 10.796875 10.796875zm0 0" fill="#273647" data-original="#273647" class=""></path><path xmlns="http://www.w3.org/2000/svg" d="m279.519531 276.191406h134.5c5.960938 0 10.796875-4.835937 10.796875-10.796875 0-5.964843-4.835937-10.796875-10.796875-10.796875h-134.5c-5.960937 0-10.796875 4.832032-10.796875 10.796875 0 5.960938 4.835938 10.796875 10.796875 10.796875zm0 0" fill="#273647" data-original="#273647" class=""></path><path xmlns="http://www.w3.org/2000/svg" d="m346.769531 318.492188h67.25c5.964844 0 10.796875-4.835938 10.796875-10.796876 0-5.964843-4.832031-10.796874-10.796875-10.796874h-67.25c-5.960937 0-10.796875 4.832031-10.796875 10.796874 0 5.960938 4.835938 10.796876 10.796875 10.796876zm0 0" fill="#273647" data-original="#273647" class=""></path><path xmlns="http://www.w3.org/2000/svg" d="m279.519531 360.792969h134.5c5.960938 0 10.796875-4.835938 10.796875-10.796875 0-5.964844-4.835937-10.796875-10.796875-10.796875h-134.5c-5.960937 0-10.796875 4.832031-10.796875 10.796875 0 5.960937 4.835938 10.796875 10.796875 10.796875zm0 0" fill="#273647" data-original="#273647" class=""></path><path xmlns="http://www.w3.org/2000/svg" d="m350 203.035156v280.25c0 4.003906-.566406 7.867188-1.632812 11.535156-18.261719 7.074219-37.542969 12.113282-57.550782 14.828126-11.390625 1.558593-23.007812 2.351562-34.816406 2.351562-17.804688 0-35.191406-1.816406-51.972656-5.289062-42.621094-8.773438-81.367188-28.15625-113.371094-55.261719-15.277344-12.9375-29.019531-27.636719-40.910156-43.78125v-204.632813c0-22.9375 18.589844-41.535156 41.535156-41.535156h217.171875c22.945313 0 41.546875 18.597656 41.546875 41.535156zm0 0" fill="#36507d" data-original="#36507d"></path><path xmlns="http://www.w3.org/2000/svg" d="m290.179688 290.085938h-180.621094c-9.949219 0-18.015625-8.066407-18.015625-18.015626v-50.761718c0-9.949219 8.066406-18.011719 18.015625-18.011719h180.621094c9.949218 0 18.011718 8.0625 18.011718 18.011719v50.761718c0 9.949219-8.0625 18.015626-18.011718 18.015626zm0 0" fill="#56e6bf" data-original="#56e6bf"></path><g xmlns="http://www.w3.org/2000/svg" fill="#273647"><path d="m171.847656 439.988281h56.050782v43.035157h-56.050782zm0 0" fill="#273647" data-original="#273647" class=""></path><path d="m171.847656 378.488281h56.050782v41.074219h-56.050782zm0 0" fill="#273647" data-original="#273647" class=""></path><path d="m171.847656 315.027344h56.050782v43.039062h-56.050782zm0 0" fill="#273647" data-original="#273647" class=""></path><path d="m248.324219 358.066406h59.871093v-25.027344c0-9.949218-8.066406-18.011718-18.015624-18.011718h-41.855469zm0 0" fill="#273647" data-original="#273647" class=""></path><path d="m91.542969 378.488281h59.878906v41.074219h-59.878906zm0 0" fill="#273647" data-original="#273647" class=""></path><path d="m248.324219 439.988281v43.035157h41.863281c9.949219 0 18.015625-8.0625 18.015625-18.011719l-.003906-25.023438zm0 0" fill="#273647" data-original="#273647" class=""></path><path d="m151.425781 439.984375v43.039063h-13.824219c-16.488281-8.609376-31.921874-18.964844-46.058593-30.832032v-12.207031zm0 0" fill="#273647" data-original="#273647" class=""></path><path d="m151.421875 358.066406v-43.039062h-41.863281c-9.949219 0-18.015625 8.066406-18.015625 18.011718v25.027344zm0 0" fill="#273647" data-original="#273647" class=""></path><path d="m248.324219 378.488281h59.871093v41.074219h-59.871093zm0 0" fill="#273647" data-original="#273647" class=""></path></g><path xmlns="http://www.w3.org/2000/svg" d="m287.339844 266.652344c0 4.230468-3.425782 7.660156-7.65625 7.660156h-46.980469c-4.226563 0-7.65625-3.429688-7.65625-7.660156 0-4.230469 3.429687-7.660156 7.65625-7.660156h46.980469c4.230468 0 7.65625 3.429687 7.65625 7.660156zm0 0" fill="#1dbfbd" data-original="#1dbfbd"></path></g></svg>